<?xml version="1.0" encoding="UTF-8" standalone="no"?>
<!-- Generator: Adobe Illustrator 16.0.0, SVG Export Plug-In . SVG Version: 6.00 Build 0)  -->

<svg
   version="1.1"
   id="Layer_1"
   x="0px"
   y="0px"
   width="534.73102"
   height="534.73102"
   viewBox="0 0 534.73101 534.73099"
   enable-background="new 0 0 841.89 595.28"
   xml:space="preserve"
   xmlns="http://www.w3.org/2000/svg"
   xmlns:svg="http://www.w3.org/2000/svg"><defs
   id="defs18117" />
<g
   id="g18112"
   transform="matrix(1,0,0,1.0000487,-139.509,-36.668784)">
	<path
   fill="#ed1c24"
   d="m 406.874,571.372 c 147.667,0 267.366,-119.699 267.366,-267.346 0,-147.665 -119.699,-267.359 -267.366,-267.359 -147.651,0 -267.365,119.694 -267.365,267.359 0,147.647 119.714,267.346 267.365,267.346"
   id="path18098" />
	<path
   fill="none"
   stroke="#fff200"
   stroke-width="7"
   d="m 405.335,541.495 c 132.028,0 239.014,-107.013 239.014,-239.035 0,-131.988 -106.985,-239.008 -239.014,-239.008 -132.014,0 -239.041,107.02 -239.041,239.008 0,132.022 107.027,239.035 239.041,239.035 z"
   id="path18100" />
	<path
   fill="#fff200"
   d="m 366.671,215.017 c -1.565,6.595 -10.621,6.96 -21.128,5.267 -10.506,-1.694 -19.846,-8.825 -14.303,-18.101 6.709,-4.677 34.442,4.964 35.431,12.834 m -55.572,36.489 c -6.132,5.542 -32.121,-13.424 0.283,-17.208 0.295,2.38 1.692,9.615 -0.283,17.208 m 19.858,-16.631 c 4.08,-0.578 16.934,1.328 14.008,5.26 -2.643,2.149 -11.674,7.876 -13.148,6.42 -1.463,-1.455 -1.579,-10.012 -0.86,-11.68 m 246.506,39.986 C 526.407,187.994 555.835,161.37 556.193,141.743 464.767,159.702 426.834,108.466 420.972,111.545 c -12.969,7.435 -4.555,34.059 -2.809,50.178 5.951,8.487 10.851,-3.509 14.38,-6.657 52.544,31.353 91.067,1.141 100.509,9.793 -19.961,63.597 17.266,127.083 25.58,154.145 20.319,60.947 -34.137,138.02 -131.002,93.786 58.316,-73.127 19.961,-142.47 -34.072,-175.059 -10.416,-4.901 -5.248,-20.666 17.088,-4.901 34.521,24.854 59.713,59.542 62.165,100.277 0,17.069 1.743,49.036 -0.859,52.103 -8.351,12.61 -15.778,18.575 -7.544,21.359 12.252,-4.285 49.057,-14.7 51.492,-23.553 -4.913,-6.567 -21.641,-1.667 -21.641,-12.257 -2.18,-44.662 0.834,-148.441 3.823,-173.463 2.744,-5.113 15.727,-12.11 8.006,-19.467 -5.595,-0.699 -35.381,-5.6 -42.025,-4.549 -11.828,7.357 5.951,13.572 9.453,25.208 1.501,12.629 2.374,31.187 -0.345,47.478 -9.981,-13.573 -51.853,-49.92 -62.525,-54.835 4.375,-14.354 11.031,-87.918 -52.544,-83.531 -53.417,8.923 -70.94,67.785 -120.419,83.903 0,0 25.208,-3.046 34.213,-6.215 9.018,-3.162 24.374,-19.313 46.026,-34.021 20.538,-9.524 62.937,-20.017 59.973,30.474 -11.52,5.042 -70.709,1.078 -76.726,5.85 -6.003,4.752 5.67,7.325 9.353,9.339 1.154,7.575 0.576,13.828 0,20.134 -54.303,27.445 -17.524,49.625 0,50.799 0.576,17.157 1.73,74.045 0,91.074 0.27,8.452 -13.893,17.164 -11.097,21.725 13.648,7.747 27.979,-6.729 43.488,-9.813 7.876,-6.658 -6.492,-9.153 -10.508,-13.676 -4.016,-4.49 -1.449,-76.764 -1.744,-88.616 4.682,-4.202 25.978,-12.085 37.061,-18.204 37.101,5.831 61.022,101.567 26.567,132.228 -15.767,-2.932 -15.47,-56.227 -10.225,-75.309 -36.779,40.273 -4.669,83.19 -5.542,89.85 -97.66,52.19 -193.82,-28.845 -136.325,-63.29 1.861,17.513 -0.885,32.103 -2.334,46.466 2.631,6.944 36.791,-7.346 39.536,-10.354 2.758,-3.009 -4.118,-5.451 -10.634,-9.954 -1.745,-4.547 -1.873,-24.412 -0.872,-31.423 5.259,-1.161 19.061,3.387 26.555,3.387 1.821,0.712 4.387,-3.97 2.539,-7.762 -3.527,-8.832 -21.397,-9.615 -27.94,-9.615 -2.026,-8.183 -2.026,-85.255 0.949,-101.598 5.004,-10.68 8.902,-15.682 4.4,-17.678 -4.503,-2.013 -25.515,11.258 -44.552,11.258 0,3.258 1.026,7.261 1.026,10.255 6.375,1.425 3.155,2.015 11.327,3.509 2.18,17.011 1.193,84.058 0.578,97.077 -79.47,24.028 -5.901,169.141 166.741,111.094 165.639,73.555 228.676,-65.055 167.947,-153.633"
   id="path18102" />
	<path
   fill="#fff200"
   d="m 349.339,457.888 c 1.156,-1.456 8.929,-2.27 8.929,2.983 -1.038,8.119 -6.888,28.851 -11.84,35.257 -6.428,6.779 -9.75,7.607 -8.184,-1.751 1.565,-9.339 11.095,-36.489 11.095,-36.489"
   id="path18104" />
	<path
   fill="#fff200"
   d="m 388.221,479.355 c 0,3.823 -3.077,6.907 -6.926,6.907 -3.822,0 -6.928,-3.084 -6.928,-6.907 0,-3.836 3.105,-6.928 6.928,-6.928 3.849,10e-4 6.926,3.093 6.926,6.928 m -5.9,-17.786 c -27.734,-1.629 -23.694,37.306 -0.309,35.727 -3.079,5.951 -6.694,8.46 -12.891,8.46 -7.583,-0.578 -8.698,6.439 0,8.709 27.798,2.4 46.592,-48.342 13.2,-52.896"
   id="path18106" />
	<path
   fill="#fff200"
   d="m 459.111,492.844 c -1.154,-3.622 0.871,-7.529 4.514,-8.672 3.644,-1.153 7.518,0.878 8.674,4.521 1.154,3.65 -0.859,7.524 -4.516,8.686 -3.643,1.142 -7.518,-0.885 -8.672,-4.535 m 10.955,15.183 c 26.938,-6.774 11.416,-42.706 -10.443,-34.162 1.156,-6.593 3.851,-10.078 9.75,-11.956 7.414,-1.72 6.362,-8.735 -2.617,-8.287 -27.223,6.067 -29.889,60.107 3.31,54.405"
   id="path18108" />
	<path
   fill="#fff200"
   d="m 427.862,494.377 -9.905,0.584 -0.614,-5.548 8.184,-8.172 h 1.386 m 15.072,13.136 c -1.143,-2.496 -3.913,0.584 -4.901,-1.981 -0.345,-9.352 -0.691,-26.914 -0.691,-26.914 -1.475,-1.225 -5.606,-3.912 -9.12,-1.456 -3.491,2.457 -18.962,19.255 -22.759,25.683 -1.18,4.979 -5.259,15.182 3.797,15.182 9.032,0 19.845,0.59 19.845,0.59 0,0 -1.346,8.172 1.168,9.628 2.515,-0.295 7.069,1.347 7.761,-0.987 0.707,-2.336 0.707,-5.247 0.707,-8.641 2.104,-0.712 4.194,0 4.899,-1.52 0.589,-7.582 0.641,-6.665 -0.706,-9.584"
   id="path18110" />
</g>
</svg>
